<?xml version="1.0" encoding="UTF-8" standalone="no"?>
<!DOCTYPE svg PUBLIC "-//W3C//DTD SVG 1.1//EN" "http://www.w3.org/Graphics/SVG/1.1/DTD/svg11.dtd">
<!-- Generated by Microsoft Visio, SVG Export Two-Engines-One-Runtime-Double-Proxy.svg Page-1 -->
<svg xmlns="http://www.w3.org/2000/svg" xmlns:xlink="http://www.w3.org/1999/xlink" xmlns:ev="http://www.w3.org/2001/xml-events"
		width="5.14582in" height="3.51389in" viewBox="0 0 370.499 253" xml:space="preserve" color-interpolation-filters="sRGB"
		class="st13">
	<style type="text/css">
	<![CDATA[
		.st1 {fill:#dae7f6;stroke:#1ba1e2;stroke-linecap:round;stroke-linejoin:round;stroke-width:1}
		.st2 {fill:#1ba1e2;font-family:Segoe UI;font-size:0.833336em}
		.st3 {fill:#dbe6db;stroke:#339933;stroke-linecap:round;stroke-linejoin:round;stroke-width:1}
		.st4 {fill:#339933;font-family:Segoe UI;font-size:0.833336em}
		.st5 {fill:#ffffff;stroke:#339933;stroke-linecap:round;stroke-linejoin:round;stroke-width:1}
		.st6 {fill:#339933}
		.st7 {stroke:#339933;stroke-linecap:round;stroke-linejoin:round;stroke-width:1}
		.st8 {fill:#ffffff;stroke:#ff0000;stroke-linecap:round;stroke-linejoin:round;stroke-width:1}
		.st9 {fill:#ff0000;font-family:Segoe UI;font-size:0.833336em}
		.st10 {fill:#ff0000}
		.st11 {stroke:#ff0000;stroke-linecap:round;stroke-linejoin:round;stroke-width:1}
		.st12 {fill:#ffffff;stroke:#ff0000;stroke-dasharray:1,2;stroke-linecap:round;stroke-linejoin:round;stroke-width:1}
		.st13 {fill:none;fill-rule:evenodd;font-size:12px;overflow:visible;stroke-linecap:square;stroke-miterlimit:3}
	]]>
	</style>

	<g>
		<title>Page-1</title>
		<g id="shape1-1" transform="translate(18.4998,-18.5)">
			<title>Rounded Rectangle.24</title>
			<desc>Managed Host</desc>
			<path d="M11.7 253 L105.3 253 A11.6998 11.6998 -180 0 0 117 241.3 L117 48.7 A11.6998 11.6998 -180 0 0 105.3 37 L11.7
						 37 A11.6998 11.6998 -180 0 0 0 48.7 L0 241.3 A11.6998 11.6998 -180 0 0 11.7 253 Z" class="st1"/>
			<text x="25.92" y="50" class="st2">Managed Host</text>		</g>
		<g id="shape4-4" transform="translate(145.499,-18.5)">
			<title>Rounded Rectangle.1000</title>
			<desc>V8 Runtime</desc>
			<path d="M20.65 253 L185.85 253 A20.6497 20.6497 -180 0 0 206.5 232.35 L206.5 57.65 A20.6497 20.6497 -180 0 0 185.85
						 37 L20.65 37 A20.6497 20.6497 -180 0 0 -0 57.65 L0 232.35 A20.6497 20.6497 -180 0 0 20.65 253 Z"
					class="st3"/>
			<text x="77.6" y="50" class="st4">V8 Runtime</text>		</g>
		<g id="shape6-7" transform="translate(252.999,-68.25)">
			<title>Rounded Rectangle.1008</title>
			<desc>V8 Heap</desc>
			<path d="M9 253 L81 253 A8.99985 8.99985 -180 0 0 90 244 L90 190 A8.99985 8.99985 -180 0 0 81 181 L9 181 A8.99985 8.99985
						 -180 0 0 0 190 L0 244 A8.99985 8.99985 -180 0 0 9 253 Z" class="st1"/>
			<text x="26.18" y="194" class="st2">V8 Heap</text>		</g>
		<g id="shape5-10" transform="translate(154.499,-109)">
			<title>Rounded Rectangle</title>
			<desc>V8 Engine</desc>
			<path d="M9 253 L81 253 A8.99985 8.99985 -180 0 0 90 244 L90 190 A8.99985 8.99985 -180 0 0 81 181 L9 181 A8.99985 8.99985
						 -180 0 0 0 190 L0 244 A8.99985 8.99985 -180 0 0 9 253 Z" class="st1"/>
			<text x="22.87" y="194" class="st2">V8 Engine</text>		</g>
		<g id="shape1000-13" transform="translate(154.499,-27.5)">
			<title>Rounded Rectangle.1000</title>
			<desc>V8 Engine</desc>
			<path d="M9 253 L81 253 A8.99985 8.99985 -180 0 0 90 244 L90 190 A8.99985 8.99985 -180 0 0 81 181 L9 181 A8.99985 8.99985
						 -180 0 0 0 190 L0 244 A8.99985 8.99985 -180 0 0 9 253 Z" class="st1"/>
			<text x="22.87" y="194" class="st2">V8 Engine</text>		</g>
		<g id="shape1003-16" transform="translate(267.749,-76.5)">
			<title>Rounded Rectangle.1003</title>
			<desc>{ bar: 123 }</desc>
			<path d="M6.05 253 L54.45 253 A6.04992 6.04992 -180 0 0 60.5 246.95 L60.5 243.3 A6.04992 6.04992 -180 0 0 54.45 237.25
						 L6.05 237.25 A6.04992 6.04992 -180 0 0 -0 243.3 L0 246.95 A6.04992 6.04992 -180 0 0 6.05 253 Z"
					class="st5"/>
			<text x="6.73" y="248.13" class="st4">{ bar: 123 }</text>		</g>
		<g id="shape1004-19" transform="translate(134.821,376.683) rotate(-147.831)">
			<title>Single arrowhead.1004</title>
			<path d="M4.5 250.75 L4.5 255.25 L0 253 L4.5 250.75 Z" class="st6"/>
			<path d="M4.5 250.75 L4.5 255.25 L0 253 L4.5 250.75" class="st7"/>
			<path d="M4.5 253 L67.66 253" class="st7"/>
		</g>
		<g id="shape1002-23" transform="translate(186.749,-118.625)">
			<title>Rounded Rectangle.1002</title>
			<desc>foo</desc>
			<path d="M2.55 253 L22.95 253 A2.55003 2.55003 -180 0 0 25.5 250.45 L25.5 239.8 A2.55003 2.55003 -180 0 0 22.95 237.25
						 L2.55 237.25 A2.55003 2.55003 -180 0 0 0 239.8 L0 250.45 A2.55003 2.55003 -180 0 0 2.55 253 Z" class="st5"/>
			<text x="5.33" y="248.13" class="st4">foo</text>		</g>
		<g id="shape1001-26" transform="translate(186.749,-36)">
			<title>Rounded Rectangle.1001</title>
			<desc>foo</desc>
			<path d="M2.55 253 L22.95 253 A2.55003 2.55003 -180 0 0 25.5 250.45 L25.5 239.8 A2.55003 2.55003 -180 0 0 22.95 237.25
						 L2.55 237.25 A2.55003 2.55003 -180 0 0 0 239.8 L0 250.45 A2.55003 2.55003 -180 0 0 2.55 253 Z" class="st8"/>
			<text x="5.33" y="248.13" class="st9">foo</text>		</g>
		<g id="shape1008-29" transform="translate(274.547,363.777) rotate(159.694)">
			<title>Single arrowhead.1008</title>
			<path d="M4.5 250.75 L4.5 255.25 L0 253 L4.5 250.75 Z" class="st10"/>
			<path d="M4.5 250.75 L4.5 255.25 L0 253 L4.5 250.75" class="st11"/>
			<path d="M4.5 253 L99.33 253" class="st11"/>
		</g>
		<g id="shape1005-33" transform="translate(59.3746,-77.3125)">
			<title>Rounded Rectangle.1005</title>
			<desc>Proxy</desc>
			<path d="M3.53 253 L31.73 253 A3.52498 3.52498 -180 0 0 35.25 249.47 L35.25 240.78 A3.52498 3.52498 -180 0 0 31.73 237.25
						 L3.53 237.25 A3.52498 3.52498 -180 0 0 0 240.78 L0 249.47 A3.52498 3.52498 -180 0 0 3.53 253 Z"
					class="st12"/>
			<text x="5.44" y="248.13" class="st9">Proxy</text>		</g>
		<g id="shape1007-36" transform="translate(181.39,-62.6223) rotate(20.3056)">
			<title>Single arrowhead.1007</title>
			<path d="M4.5 250.75 L4.5 255.25 L0 253 L4.5 250.75 Z" class="st10"/>
			<path d="M4.5 250.75 L4.5 255.25 L0 253 L4.5 250.75" class="st11"/>
			<path d="M4.5 253 L99.33 253" class="st11"/>
		</g>
		<g id="shape10-40" transform="translate(180.24,464.187) rotate(174.16)">
			<title>Single arrowhead.1014</title>
			<path d="M4.5 250.75 L4.5 255.25 L0 253 L4.5 250.75 Z" class="st6"/>
			<path d="M4.5 250.75 L4.5 255.25 L0 253 L4.5 250.75" class="st7"/>
			<path d="M4.5 253 L55.29 253" class="st7"/>
		</g>
		<g id="shape9-44" transform="translate(126.497,337.946) rotate(-173.645)">
			<title>Single arrowhead.1012</title>
			<path d="M4.5 250.75 L4.5 255.25 L0 253 L4.5 250.75 Z" class="st6"/>
			<path d="M4.5 250.75 L4.5 255.25 L0 253 L4.5 250.75" class="st7"/>
			<path d="M4.5 253 L55.34 253" class="st7"/>
		</g>
		<g id="shape11-48" transform="translate(54.4998,-27)">
			<title>Rounded Rectangle.1015</title>
			<desc>engine2</desc>
			<path d="M4.5 253 L40.5 253 A4.49993 4.49993 -180 0 0 45 248.5 L45 241.75 A4.49993 4.49993 -180 0 0 40.5 237.25 L4.5
						 237.25 A4.49993 4.49993 -180 0 0 0 241.75 L0 248.5 A4.49993 4.49993 -180 0 0 4.5 253 Z" class="st5"/>
			<text x="4.76" y="248.13" class="st4">engine2</text>		</g>
		<g id="shape8-51" transform="translate(54.4998,-164.75)">
			<title>Rounded Rectangle.1011</title>
			<desc>engine1</desc>
			<path d="M4.5 253 L40.5 253 A4.49993 4.49993 -180 0 0 45 248.5 L45 241.75 A4.49993 4.49993 -180 0 0 40.5 237.25 L4.5
						 237.25 A4.49993 4.49993 -180 0 0 0 241.75 L0 248.5 A4.49993 4.49993 -180 0 0 4.5 253 Z" class="st5"/>
			<text x="4.76" y="248.13" class="st4">engine1</text>		</g>
	</g>
</svg>
