<?xml version="1.0" encoding="UTF-8" standalone="no"?>
<!DOCTYPE svg PUBLIC "-//W3C//DTD SVG 1.1//EN" "http://www.w3.org/Graphics/SVG/1.1/DTD/svg11.dtd">
<!-- Generated by Microsoft Visio, SVG Export Two-Engines-One-Runtime.svg Page-1 -->
<svg xmlns="http://www.w3.org/2000/svg" xmlns:xlink="http://www.w3.org/1999/xlink" xmlns:ev="http://www.w3.org/2001/xml-events"
		width="5.14582in" height="3.51389in" viewBox="0 0 370.499 253" xml:space="preserve" color-interpolation-filters="sRGB"
		class="st8">
	<style type="text/css">
	<![CDATA[
		.st1 {fill:#dae7f6;stroke:#1ba1e2;stroke-linecap:round;stroke-linejoin:round;stroke-width:1}
		.st2 {fill:#1ba1e2;font-family:Segoe UI;font-size:0.833336em}
		.st3 {fill:#dbe6db;stroke:#339933;stroke-linecap:round;stroke-linejoin:round;stroke-width:1}
		.st4 {fill:#339933;font-family:Segoe UI;font-size:0.833336em}
		.st5 {fill:#339933}
		.st6 {stroke:#339933;stroke-linecap:round;stroke-linejoin:round;stroke-width:1}
		.st7 {fill:#ffffff;stroke:#339933;stroke-linecap:round;stroke-linejoin:round;stroke-width:1}
		.st8 {fill:none;fill-rule:evenodd;font-size:12px;overflow:visible;stroke-linecap:square;stroke-miterlimit:3}
	]]>
	</style>

	<g>
		<title>Page-1</title>
		<g id="shape1005-1" transform="translate(18.4998,-18.5)">
			<title>Rounded Rectangle.24</title>
			<desc>Managed Host</desc>
			<path d="M11.7 253 L105.3 253 A11.6998 11.6998 -180 0 0 117 241.3 L117 48.7 A11.6998 11.6998 -180 0 0 105.3 37 L11.7
						 37 A11.6998 11.6998 -180 0 0 0 48.7 L0 241.3 A11.6998 11.6998 -180 0 0 11.7 253 Z" class="st1"/>
			<text x="25.92" y="50" class="st2">Managed Host</text>		</g>
		<g id="shape1006-4" transform="translate(145.499,-18.5)">
			<title>Rounded Rectangle.4</title>
			<desc>V8 Runtime</desc>
			<path d="M20.65 253 L185.85 253 A20.6497 20.6497 -180 0 0 206.5 232.35 L206.5 57.65 A20.6497 20.6497 -180 0 0 185.85
						 37 L20.65 37 A20.6497 20.6497 -180 0 0 -0 57.65 L0 232.35 A20.6497 20.6497 -180 0 0 20.65 253 Z"
					class="st3"/>
			<text x="77.6" y="50" class="st4">V8 Runtime</text>		</g>
		<g id="shape1007-7" transform="translate(252.999,-68.25)">
			<title>Rounded Rectangle.1007</title>
			<desc>V8 Heap</desc>
			<path d="M9 253 L81 253 A8.99985 8.99985 -180 0 0 90 244 L90 190 A8.99985 8.99985 -180 0 0 81 181 L9 181 A8.99985 8.99985
						 -180 0 0 0 190 L0 244 A8.99985 8.99985 -180 0 0 9 253 Z" class="st1"/>
			<text x="26.18" y="194" class="st2">V8 Heap</text>		</g>
		<g id="shape1008-10" transform="translate(154.499,-109)">
			<title>Rounded Rectangle</title>
			<desc>V8 Engine</desc>
			<path d="M9 253 L81 253 A8.99985 8.99985 -180 0 0 90 244 L90 190 A8.99985 8.99985 -180 0 0 81 181 L9 181 A8.99985 8.99985
						 -180 0 0 0 190 L0 244 A8.99985 8.99985 -180 0 0 9 253 Z" class="st1"/>
			<text x="22.87" y="194" class="st2">V8 Engine</text>		</g>
		<g id="shape1009-13" transform="translate(154.499,-27.5)">
			<title>Rounded Rectangle.1000</title>
			<desc>V8 Engine</desc>
			<path d="M9 253 L81 253 A8.99985 8.99985 -180 0 0 90 244 L90 190 A8.99985 8.99985 -180 0 0 81 181 L9 181 A8.99985 8.99985
						 -180 0 0 0 190 L0 244 A8.99985 8.99985 -180 0 0 9 253 Z" class="st1"/>
			<text x="22.87" y="194" class="st2">V8 Engine</text>		</g>
		<g id="shape1015-16" transform="translate(126.497,337.946) rotate(-173.645)">
			<title>Single arrowhead.1012</title>
			<path d="M4.5 250.75 L4.5 255.25 L0 253 L4.5 250.75 Z" class="st5"/>
			<path d="M4.5 250.75 L4.5 255.25 L0 253 L4.5 250.75" class="st6"/>
			<path d="M4.5 253 L55.34 253" class="st6"/>
		</g>
		<g id="shape1016-20" transform="translate(180.24,464.187) rotate(174.16)">
			<title>Single arrowhead.1014</title>
			<path d="M4.5 250.75 L4.5 255.25 L0 253 L4.5 250.75 Z" class="st5"/>
			<path d="M4.5 250.75 L4.5 255.25 L0 253 L4.5 250.75" class="st6"/>
			<path d="M4.5 253 L55.29 253" class="st6"/>
		</g>
		<g id="shape1017-24" transform="translate(54.4998,-27)">
			<title>Rounded Rectangle.1015</title>
			<desc>engine2</desc>
			<path d="M4.5 253 L40.5 253 A4.49993 4.49993 -180 0 0 45 248.5 L45 241.75 A4.49993 4.49993 -180 0 0 40.5 237.25 L4.5
						 237.25 A4.49993 4.49993 -180 0 0 0 241.75 L0 248.5 A4.49993 4.49993 -180 0 0 4.5 253 Z" class="st7"/>
			<text x="4.76" y="248.13" class="st4">engine2</text>		</g>
		<g id="shape1018-27" transform="translate(54.4998,-164.75)">
			<title>Rounded Rectangle.1011</title>
			<desc>engine1</desc>
			<path d="M4.5 253 L40.5 253 A4.49993 4.49993 -180 0 0 45 248.5 L45 241.75 A4.49993 4.49993 -180 0 0 40.5 237.25 L4.5
						 237.25 A4.49993 4.49993 -180 0 0 0 241.75 L0 248.5 A4.49993 4.49993 -180 0 0 4.5 253 Z" class="st7"/>
			<text x="4.76" y="248.13" class="st4">engine1</text>		</g>
	</g>
</svg>
