<?xml version="1.0" encoding="UTF-8" standalone="no"?>
<!DOCTYPE svg PUBLIC "-//W3C//DTD SVG 1.1//EN" "http://www.w3.org/Graphics/SVG/1.1/DTD/svg11.dtd">
<!-- Generated by Microsoft Visio, SVG Export Two-Engines-Two-Runtimes-Shared-Backing-Store.svg Page-1 -->
<svg xmlns="http://www.w3.org/2000/svg" xmlns:xlink="http://www.w3.org/1999/xlink" xmlns:ev="http://www.w3.org/2001/xml-events"
		width="5.38888in" height="4.75694in" viewBox="0 0 388 342.5" xml:space="preserve" color-interpolation-filters="sRGB"
		class="st9">
	<style type="text/css">
	<![CDATA[
		.st1 {fill:#dae7f6;stroke:#1ba1e2;stroke-linecap:round;stroke-linejoin:round;stroke-width:1}
		.st2 {fill:#1ba1e2;font-family:Segoe UI;font-size:0.833336em}
		.st3 {fill:#dbe6db;stroke:#339933;stroke-linecap:round;stroke-linejoin:round;stroke-width:1}
		.st4 {fill:#339933;font-family:Segoe UI;font-size:0.833336em}
		.st5 {fill:#dae7f6;stroke:#1ba1e2;stroke-linecap:butt;stroke-width:1}
		.st6 {fill:#339933}
		.st7 {stroke:#339933;stroke-linecap:round;stroke-linejoin:round;stroke-width:1}
		.st8 {fill:#ffffff;stroke:#339933;stroke-linecap:round;stroke-linejoin:round;stroke-width:1}
		.st9 {fill:none;fill-rule:evenodd;font-size:12px;overflow:visible;stroke-linecap:square;stroke-miterlimit:3}
	]]>
	</style>

	<g>
		<title>Page-1</title>
		<g id="shape1009-1" transform="translate(135.5,-27)">
			<title>Rounded Rectangle.12</title>
			<desc>Native Heap</desc>
			<path d="M11.7 342.5 L105.3 342.5 A11.6998 11.6998 -180 0 0 117 330.8 L117 282.2 A11.6998 11.6998 -180 0 0 105.3 270.5
						 L11.7 270.5 A11.6998 11.6998 -180 0 0 0 282.2 L0 330.8 A11.6998 11.6998 -180 0 0 11.7 342.5 Z" class="st1"/>
			<text x="31.28" y="283.5" class="st2">Native Heap</text>		</g>
		<g id="shape1-4" transform="translate(135.5,-108)">
			<title>Rounded Rectangle.24</title>
			<desc>Managed Host</desc>
			<path d="M11.7 342.5 L105.3 342.5 A11.6998 11.6998 -180 0 0 117 330.8 L117 138.2 A11.6998 11.6998 -180 0 0 105.3 126.5
						 L11.7 126.5 A11.6998 11.6998 -180 0 0 0 138.2 L0 330.8 A11.6998 11.6998 -180 0 0 11.7 342.5 Z" class="st1"/>
			<text x="25.92" y="139.5" class="st2">Managed Host</text>		</g>
		<g id="shape2-7" transform="translate(261.5,-18.5)">
			<title>Rounded Rectangle.1001</title>
			<desc>V8 Runtime</desc>
			<path d="M10.8 342.5 L97.2 342.5 A10.7998 10.7998 -180 0 0 108 331.7 L108 137.3 A10.7998 10.7998 -180 0 0 97.2 126.5
						 L10.8 126.5 A10.7998 10.7998 -180 0 0 0 137.3 L0 331.7 A10.7998 10.7998 -180 0 0 10.8 342.5 Z" class="st3"/>
			<text x="28.35" y="139.5" class="st4">V8 Runtime</text>		</g>
		<g id="shape3-10" transform="translate(270.5,-108.5)">
			<title>Rounded Rectangle.28</title>
			<desc>V8 Engine</desc>
			<path d="M9 342.5 L81 342.5 A8.99985 8.99985 -180 0 0 90 333.5 L90 279.5 A8.99985 8.99985 -180 0 0 81 270.5 L9 270.5
						 A8.99985 8.99985 -180 0 0 0 279.5 L0 333.5 A8.99985 8.99985 -180 0 0 9 342.5 Z" class="st1"/>
			<text x="41.74" y="283.5" class="st2">V8 Engine</text>		</g>
		<g id="shape4-13" transform="translate(18.4998,-18.5)">
			<title>Rounded Rectangle.1000</title>
			<desc>V8 Runtime</desc>
			<path d="M10.8 342.5 L97.2 342.5 A10.7998 10.7998 -180 0 0 108 331.7 L108 137.3 A10.7998 10.7998 -180 0 0 97.2 126.5
						 L10.8 126.5 A10.7998 10.7998 -180 0 0 0 137.3 L0 331.7 A10.7998 10.7998 -180 0 0 10.8 342.5 Z" class="st3"/>
			<text x="28.35" y="139.5" class="st4">V8 Runtime</text>		</g>
		<g id="shape5-16" transform="translate(27.4998,-108.5)">
			<title>Rounded Rectangle</title>
			<desc>V8 Engine</desc>
			<path d="M9 342.5 L81 342.5 A8.99985 8.99985 -180 0 0 90 333.5 L90 279.5 A8.99985 8.99985 -180 0 0 81 270.5 L9 270.5
						 A8.99985 8.99985 -180 0 0 0 279.5 L0 333.5 A8.99985 8.99985 -180 0 0 9 342.5 Z" class="st5"/>
			<text x="4" y="283.5" class="st2">V8 Engine</text>		</g>
		<g id="shape6-19" transform="translate(27.4998,-27)">
			<title>Rounded Rectangle.1008</title>
			<desc>V8 Heap</desc>
			<path d="M9 342.5 L81 342.5 A8.99985 8.99985 -180 0 0 90 333.5 L90 279.5 A8.99985 8.99985 -180 0 0 81 270.5 L9 270.5
						 A8.99985 8.99985 -180 0 0 0 279.5 L0 333.5 A8.99985 8.99985 -180 0 0 9 342.5 Z" class="st1"/>
			<text x="4" y="283.5" class="st2">V8 Heap</text>		</g>
		<g id="shape7-22" transform="translate(270.5,-27.5)">
			<title>Rounded Rectangle.1010</title>
			<desc>V8 Heap</desc>
			<path d="M9 342.5 L81 342.5 A8.99985 8.99985 -180 0 0 90 333.5 L90 279.5 A8.99985 8.99985 -180 0 0 81 270.5 L9 270.5
						 A8.99985 8.99985 -180 0 0 0 279.5 L0 333.5 A8.99985 8.99985 -180 0 0 9 342.5 Z" class="st1"/>
			<text x="48.36" y="283.5" class="st2">V8 Heap</text>		</g>
		<g id="shape9-25" transform="translate(-153.811,-95.0789) rotate(-41.358)">
			<title>Single arrowhead.1012</title>
			<path d="M4.5 340.25 L4.5 344.75 L0 342.5 L4.5 340.25 Z" class="st6"/>
			<path d="M4.5 340.25 L4.5 344.75 L0 342.5 L4.5 340.25" class="st7"/>
			<path d="M4.5 342.5 L125.23 342.5" class="st7"/>
		</g>
		<g id="shape10-29" transform="translate(90.5398,420.262) rotate(-138.942)">
			<title>Single arrowhead.1014</title>
			<path d="M4.5 340.25 L4.5 344.75 L0 342.5 L4.5 340.25 Z" class="st6"/>
			<path d="M4.5 340.25 L4.5 344.75 L0 342.5 L4.5 340.25" class="st7"/>
			<path d="M4.5 342.5 L125.99 342.5" class="st7"/>
		</g>
		<g id="shape1004-33" transform="translate(158,641.125) rotate(180)">
			<title>Single arrowhead.1004</title>
			<path d="M4.5 340.25 L4.5 344.75 L0 342.5 L4.5 340.25 Z" class="st6"/>
			<path d="M4.5 340.25 L4.5 344.75 L0 342.5 L4.5 340.25" class="st7"/>
			<path d="M4.5 342.5 L50 342.5" class="st7"/>
		</g>
		<g id="shape1001-37" transform="translate(36,-36)">
			<title>Rounded Rectangle.1001</title>
			<desc>Array Buffer</desc>
			<path d="M7.2 342.5 L64.8 342.5 A7.19988 7.19988 -180 0 0 72 335.3 L72 333.95 A7.19988 7.19988 -180 0 0 64.8 326.75 L7.2
						 326.75 A7.19988 7.19988 -180 0 0 -0 333.95 L0 335.3 A7.19988 7.19988 -180 0 0 7.2 342.5 Z" class="st8"/>
			<text x="9.79" y="337.63" class="st4">Array Buffer</text>		</g>
		<g id="shape1002-40" transform="translate(-270.49,288.19) rotate(-89.5718)">
			<title>Single arrowhead.1002</title>
			<path d="M4.5 340.25 L4.5 344.75 L0 342.5 L4.5 340.25 Z" class="st6"/>
			<path d="M4.5 340.25 L4.5 344.75 L0 342.5 L4.5 340.25" class="st7"/>
			<path d="M4.5 342.5 L66.88 342.5" class="st7"/>
		</g>
		<g id="shape1005-44" transform="translate(279,-36)">
			<title>Rounded Rectangle.1005</title>
			<desc>Array Buffer</desc>
			<path d="M7.2 342.5 L64.8 342.5 A7.19988 7.19988 -180 0 0 72 335.3 L72 333.95 A7.19988 7.19988 -180 0 0 64.8 326.75 L7.2
						 326.75 A7.19988 7.19988 -180 0 0 -0 333.95 L0 335.3 A7.19988 7.19988 -180 0 0 7.2 342.5 Z" class="st8"/>
			<text x="9.79" y="337.63" class="st4">Array Buffer</text>		</g>
		<g id="shape1006-47" transform="translate(-27.4904,288.19) rotate(-89.5718)">
			<title>Single arrowhead.1006</title>
			<path d="M4.5 340.25 L4.5 344.75 L0 342.5 L4.5 340.25 Z" class="st6"/>
			<path d="M4.5 340.25 L4.5 344.75 L0 342.5 L4.5 340.25" class="st7"/>
			<path d="M4.5 342.5 L66.88 342.5" class="st7"/>
		</g>
		<g id="shape1008-51" transform="translate(230,-43.875)">
			<title>Single arrowhead.1008</title>
			<path d="M4.5 340.25 L4.5 344.75 L0 342.5 L4.5 340.25 Z" class="st6"/>
			<path d="M4.5 340.25 L4.5 344.75 L0 342.5 L4.5 340.25" class="st7"/>
			<path d="M4.5 342.5 L49 342.5" class="st7"/>
		</g>
		<g id="shape1003-55" transform="translate(158,-36)">
			<title>Rounded Rectangle.1003</title>
			<desc>Backing Store</desc>
			<path d="M7.2 342.5 L64.8 342.5 A7.19988 7.19988 -180 0 0 72 335.3 L72 333.95 A7.19988 7.19988 -180 0 0 64.8 326.75 L7.2
						 326.75 A7.19988 7.19988 -180 0 0 -0 333.95 L0 335.3 A7.19988 7.19988 -180 0 0 7.2 342.5 Z" class="st8"/>
			<text x="5.81" y="337.63" class="st4">Backing Store</text>		</g>
		<g id="shape11-58" transform="translate(198,-263.25)">
			<title>Rounded Rectangle.1015</title>
			<desc>engine2</desc>
			<path d="M4.5 342.5 L40.5 342.5 A4.49993 4.49993 -180 0 0 45 338 L45 331.25 A4.49993 4.49993 -180 0 0 40.5 326.75 L4.5
						 326.75 A4.49993 4.49993 -180 0 0 0 331.25 L0 338 A4.49993 4.49993 -180 0 0 4.5 342.5 Z" class="st8"/>
			<text x="4.76" y="337.63" class="st4">engine2</text>		</g>
		<g id="shape8-61" transform="translate(144,-263.25)">
			<title>Rounded Rectangle.1011</title>
			<desc>engine1</desc>
			<path d="M4.5 342.5 L40.5 342.5 A4.49993 4.49993 -180 0 0 45 338 L45 331.25 A4.49993 4.49993 -180 0 0 40.5 326.75 L4.5
						 326.75 A4.49993 4.49993 -180 0 0 0 331.25 L0 338 A4.49993 4.49993 -180 0 0 4.5 342.5 Z" class="st8"/>
			<text x="4.76" y="337.63" class="st4">engine1</text>		</g>
		<g id="shape1000-64" transform="translate(58.7499,-118.625)">
			<title>Rounded Rectangle.1000</title>
			<desc>sab</desc>
			<path d="M2.75 342.5 L24.75 342.5 A2.74994 2.74994 -180 0 0 27.5 339.75 L27.5 329.5 A2.74994 2.74994 -180 0 0 24.75 326.75
						 L2.75 326.75 A2.74994 2.74994 -180 0 0 0 329.5 L0 339.75 A2.74994 2.74994 -180 0 0 2.75 342.5 Z"
					class="st8"/>
			<text x="6.14" y="337.63" class="st4">sab</text>		</g>
		<g id="shape1007-67" transform="translate(301.75,-118.625)">
			<title>Rounded Rectangle.1007</title>
			<desc>sab</desc>
			<path d="M2.75 342.5 L24.75 342.5 A2.74994 2.74994 -180 0 0 27.5 339.75 L27.5 329.5 A2.74994 2.74994 -180 0 0 24.75 326.75
						 L2.75 326.75 A2.74994 2.74994 -180 0 0 0 329.5 L0 339.75 A2.74994 2.74994 -180 0 0 2.75 342.5 Z"
					class="st8"/>
			<text x="6.14" y="337.63" class="st4">sab</text>		</g>
	</g>
</svg>
